<?xml version="1.0" encoding="utf-8"?>
<!-- Generator: Adobe Illustrator 25.0.0, SVG Export Plug-In . SVG Version: 6.00 Build 0)  -->
<svg version="1.1" id="Layer_1" xmlns="http://www.w3.org/2000/svg" xmlns:xlink="http://www.w3.org/1999/xlink" x="0px" y="0px"
	 viewBox="0 0 409.6 409.6" style="enable-background:new 0 0 409.6 409.6;" xml:space="preserve">
<style type="text/css">
	.st0{fill:#FFFFFF;}
</style>
<g>
	<path d="M216.75,409.24c-7.99,0-15.97,0-23.96,0c-1.03-0.22-2.05-0.59-3.08-0.65c-25.09-1.65-49.16-7.64-71.66-18.73
		C55.34,358.95,16.96,309.14,3.55,240.4c-1.52-7.78-2.17-15.73-3.22-23.59c0-7.99,0-15.97,0-23.96c0.23-1.15,0.6-2.29,0.68-3.44
		c1.99-28.53,9.38-55.65,23.38-80.53C62.04,41.92,119.47,5.46,196.21,0.74c36.73-2.26,71.88,5.61,104.09,23.55
		C367.6,61.75,404.12,119.32,408.9,196.2c2.29,36.87-5.83,72.04-23.66,104.46c-31.71,57.67-80.1,92.9-144.83,105.35
		C232.6,407.52,224.64,408.19,216.75,409.24z M204.79,375.1c94.1-0.03,170.43-76.41,170.28-170.39
		c-0.15-94.06-76-169.92-170.12-170.15c-93.93-0.23-170.38,76.08-170.48,170.19C34.37,298.76,110.72,375.12,204.79,375.1z"/>
	<path class="st0" d="M232.81,204.47c-2.39,2.06-3.67,3.02-4.79,4.14c-22.31,22.28-44.61,44.58-66.9,66.88
		c-1.31,1.31-2.63,2.65-3.77,4.11c-7.43,9.5-2.99,23.26,8.6,26.66c7.37,2.16,13.18-0.56,18.34-5.73
		c27.16-27.21,54.38-54.37,81.57-81.56c9.52-9.52,9.49-18.8-0.09-28.39c-26.91-26.91-53.82-53.8-80.74-80.7
		c-8.8-8.79-18.94-9.65-26.34-2.25c-7.41,7.4-6.55,17.54,2.24,26.34c22.48,22.49,44.96,44.97,67.48,67.43
		C229.43,202.42,230.8,203.09,232.81,204.47z"/>
	<path d="M232.81,204.47c-2.01-1.38-3.38-2.05-4.4-3.07c-22.52-22.45-45-44.94-67.48-67.43c-8.79-8.79-9.65-18.93-2.24-26.34
		c7.41-7.4,17.54-6.55,26.34,2.25c26.92,26.9,53.83,53.79,80.74,80.7c9.58,9.58,9.62,18.86,0.09,28.39
		c-27.19,27.19-54.4,54.35-81.57,81.56c-5.16,5.17-10.98,7.89-18.34,5.73c-11.59-3.39-16.03-17.16-8.6-26.66
		c1.14-1.46,2.46-2.8,3.77-4.11c22.29-22.3,44.59-44.6,66.9-66.88C229.14,207.49,230.42,206.53,232.81,204.47z"/>
</g>
</svg>
